<?xml version="1.0" encoding="UTF-8"?>
<svg version="1.1" xmlns="http://www.w3.org/2000/svg" width="200" height="79">
<path d="M0 0 C0.79075928 0.00523682 1.58151855 0.01047363 2.39624023 0.01586914 C3.67724609 0.02070313 3.67724609 0.02070313 4.98413086 0.02563477 C5.88196289 0.03401367 6.77979492 0.04239258 7.70483398 0.05102539 C8.6065332 0.05553711 9.50823242 0.06004883 10.43725586 0.06469727 C12.67234712 0.07652315 14.90730835 0.09300319 17.14233398 0.11352539 C17.25952573 3.94659708 17.32991476 7.77920147 17.39233398 11.61352539 C17.44260742 13.23000977 17.44260742 13.23000977 17.49389648 14.87915039 C17.57817402 21.78990815 16.95358008 26.2809577 13.14233398 32.11352539 C9.37315698 34.50550311 6.41350574 35.36622261 2.01733398 35.05102539 C-2.05472984 34.06584866 -4.00237969 33.14185938 -6.85766602 30.11352539 C-7.67016602 27.86352539 -7.67016602 27.86352539 -7.85766602 26.11352539 C-1.23266602 24.86352539 -1.23266602 24.86352539 2.14233398 27.11352539 C4.78865686 26.80134899 4.78865686 26.80134899 7.14233398 26.11352539 C7.47233398 25.12352539 7.80233398 24.13352539 8.14233398 23.11352539 C7.48233398 23.44352539 6.82233398 23.77352539 6.14233398 24.11352539 C2.33099809 24.54663174 0.40501065 24.24743899 -3.04516602 22.48852539 C-6.23731606 19.79293202 -7.56004745 18.0827116 -8.85766602 14.11352539 C-9.16376076 9.39224579 -8.45476731 6.81511941 -5.35766602 3.17602539 C-4.53266602 2.49540039 -3.70766602 1.81477539 -2.85766602 1.11352539 C-1.85766602 0.11352539 -1.85766602 0.11352539 0 0 Z M-0.85766602 9.11352539 C-1.2256305 11.98364835 -1.2327601 13.52127157 0.32983398 15.98852539 C2.15157653 17.36530136 2.15157653 17.36530136 4.70483398 16.92602539 C7.28674671 16.26725506 7.28674671 16.26725506 9.14233398 14.11352539 C9.47566732 11.61352539 9.47566732 11.61352539 9.14233398 9.11352539 C7.25733128 6.79789452 7.25733128 6.79789452 4.14233398 6.86352539 C1.02733669 6.79789452 1.02733669 6.79789452 -0.85766602 9.11352539 Z " fill="#1D293A" transform="translate(23.857666015625,27.886474609375)"/>
<path d="M0 0 C2.64 0 5.28 0 8 0 C9.32 3.3 10.64 6.6 12 10 C12.99 6.7 13.98 3.4 15 0 C17.31 0 19.62 0 22 0 C22.99 2.97 23.98 5.94 25 9 C26.32 6.03 27.64 3.06 29 0 C31.64 0 34.28 0 37 0 C30.8125 21.1875 30.8125 21.1875 29 23 C26.66702567 23.04092937 24.33294775 23.04241723 22 23 C21.01 20.03 20.02 17.06 19 14 C17.50596946 16.98806107 16.20689255 19.89656201 15 23 C12.69 23 10.38 23 8 23 C6.66128359 19.54372619 5.32994608 16.08465703 4 12.625 C3.6184375 11.64015625 3.236875 10.6553125 2.84375 9.640625 C2.30234375 8.22910156 2.30234375 8.22910156 1.75 6.7890625 C1.41484375 5.91975098 1.0796875 5.05043945 0.734375 4.15478516 C0 2 0 2 0 0 Z " fill="#1D293A" transform="translate(88,28)"/>
<path d="M0 0 C0.66 0 1.32 0 2 0 C4.31 0 6.62 0 9 0 C9 7.59 9 15.18 9 23 C6 23 3 23 0 23 C-0.66 23.33 -1.32 23.66 -2 24 C-5.9079648 24.44408691 -7.74548146 24.13704844 -11.25 22.25 C-15.1503268 19.05882353 -15.1503268 19.05882353 -16 16 C-16.42543885 10.63947052 -16.47662684 7.34578355 -13 3 C-9.37435245 -1.04399149 -5.02374993 -0.26185569 0 0 Z M-8 9 C-8.41666667 12 -8.41666667 12 -8 15 C-5.24301816 17.28138945 -5.24301816 17.28138945 -2.4375 16.8125 C0.33255117 16.16627558 0.33255117 16.16627558 2 13 C1.71725862 9.68913741 1.71725862 9.68913741 0 7 C-4.49885769 6.53277305 -4.49885769 6.53277305 -8 9 Z " fill="#1D293A" transform="translate(154,28)"/>
<path d="M0 0 C0.70189453 0.00451172 1.40378906 0.00902344 2.12695312 0.01367188 C3.85550538 0.02543073 5.58401365 0.04336546 7.3125 0.0625 C8.07066993 15.24695897 8.07066993 15.24695897 3.3125 21.0625 C0.37902294 23.47214187 -2.91557433 23.48051672 -6.65625 23.3828125 C-10.04179158 22.84893864 -12.12930448 21.25523902 -14.6875 19.0625 C-17.04212806 15.30612011 -16.885901 12.53303502 -16.30078125 8.25390625 C-15.34525922 4.83958867 -13.45184517 3.16866775 -10.6875 1.0625 C-7.06882441 -0.1437252 -3.76243749 -0.04566918 0 0 Z M-7.6875 7.0625 C-10.00293207 9.83238076 -10.00293207 9.83238076 -9.375 12.6875 C-8.9133486 14.99751965 -8.9133486 14.99751965 -7.6875 16.0625 C-5.68791636 16.10330783 -3.68704746 16.10504356 -1.6875 16.0625 C-0.12477811 11.66996227 -0.12477811 11.66996227 0.3125 7.0625 C-0.96625 7.000625 -2.245 6.93875 -3.5625 6.875 C-4.28179687 6.84019531 -5.00109375 6.80539063 -5.7421875 6.76953125 C-6.70511719 6.91455078 -6.70511719 6.91455078 -7.6875 7.0625 Z " fill="#1D293A" transform="translate(79.6875,27.9375)"/>
<path d="M0 0 C2.64 0 5.28 0 8 0 C8 2.64 8 5.28 8 8 C9.65 8 11.3 8 13 8 C13 9.98 13 11.96 13 14 C11.35 14 9.7 14 8 14 C8 19.61 8 25.22 8 31 C5.36 31 2.72 31 0 31 C0 25.39 0 19.78 0 14 C-1.32 14 -2.64 14 -4 14 C-4 12.02 -4 10.04 -4 8 C-2.68 8 -1.36 8 0 8 C0 5.36 0 2.72 0 0 Z " fill="#1D293A" transform="translate(170,20)"/>
<path d="M0 0 C2.31 0 4.62 0 7 0 C7 11.55 7 23.1 7 35 C4.69 35 2.38 35 0 35 C0 23.45 0 11.9 0 0 Z " fill="#1D2A3B" transform="translate(127,16)"/>
<path d="M0 0 C5.66666667 0 11.33333333 0 17 0 C16.67 2.31 16.34 4.62 16 7 C13.69 7 11.38 7 9 7 C8.34 12.28 7.68 17.56 7 23 C4.69 23 2.38 23 0 23 C0 15.41 0 7.82 0 0 Z " fill="#1D293A" transform="translate(46,28)"/>
<path d="M0 0 C3.63 0 7.26 0 11 0 C11 3.63 11 7.26 11 11 C8.69 11 6.38 11 4 11 C3.67 10.01 3.34 9.02 3 8 C2.01 7.67 1.02 7.34 0 7 C0 4.69 0 2.38 0 0 Z " fill="#00F1B1" transform="translate(76,28)"/>
</svg>
