<?xml version="1.0" encoding="UTF-8"?>
<svg version="1.1" xmlns="http://www.w3.org/2000/svg" width="32" height="32">
<path d="M0 0 C0 3.96 0 7.92 0 12 C-2.64 12 -5.28 12 -8 12 C-8 10.35 -8 8.7 -8 7 C-11.3 7.66 -14.6 8.32 -18 9 C-19.12437693 13.07700925 -19.12437693 13.07700925 -17.9375 16.9375 C-15.92057526 18.25299053 -15.92057526 18.25299053 -12.9375 17.9375 C-9.89148939 17.30199095 -9.89148939 17.30199095 -8.625 14.9375 C-8.315625 13.9784375 -8.315625 13.9784375 -8 13 C-5.36 13 -2.72 13 0 13 C-0.40290042 18.64060589 -2.21914326 21.03471123 -6 25 C-10.23373984 27.11686992 -15.41504428 26.63160104 -20 26 C-24.09086548 23.81636234 -26.53257744 21.40226769 -28 17 C-28.34530278 11.64780697 -28.48807959 8.33002984 -25 4 C-19.14013186 -2.02729294 -7.82092656 -2.60697552 0 0 Z " fill="#1D2A3B" transform="translate(30,3)"/>
<path d="M0 0 C0.79664063 0.00257812 1.59328125 0.00515625 2.4140625 0.0078125 C3.20554687 0.00523438 3.99703125 0.00265625 4.8125 0 C7.0390625 0.1328125 7.0390625 0.1328125 10.0390625 1.1328125 C10.0390625 5.0928125 10.0390625 9.0528125 10.0390625 13.1328125 C7.3990625 13.1328125 4.7590625 13.1328125 2.0390625 13.1328125 C2.0390625 11.4828125 2.0390625 9.8328125 2.0390625 8.1328125 C0.3890625 8.1328125 -1.2609375 8.1328125 -2.9609375 8.1328125 C-3.00335473 5.79986475 -3.00186687 3.46578683 -2.9609375 1.1328125 C-1.9609375 0.1328125 -1.9609375 0.1328125 0 0 Z " fill="#08F0B0" transform="translate(19.9609375,1.8671875)"/>
</svg>
